# xmcd
#
# Track frame offsets: 
#        150
#        24505
#        42646
#        57039
#        78524
#        92444
#        111882
#        126762
#        144207
#        161107
#        181213
#        199005
#
# Disc length: 2925 seconds
#
# Revision: 0
# Processed by: cddbd v1.5.2PL0 Copyright (c) Steve Scherf et al.
# Submitted via: ExactAudioCopy v0.99pb4
#
DISCID=990b6b0c
DTITLE=Sherese - I'm Not Afraid To Fly
DYEAR=2006
DGENRE=R&B
TTITLE0=I'm Not Afraid To Fly
TTITLE1=Everbody Knows
TTITLE2=I Don't Need Your Love
TTITLE3=Love
TTITLE4=Roam Your Hands
TTITLE5=Blessed
TTITLE6=All Out Of Love (Radio Mix)
TTITLE7=Where Did Our Love Go
TTITLE8=No Stars To Wish For
TTITLE9=Rock Your World
TTITLE10=You And Me (Boy)
TTITLE11=Turn Me
EXTD=
EXTT0=
EXTT1=
EXTT2=
EXTT3=
EXTT4=
EXTT5=
EXTT6=
EXTT7=
EXTT8=
EXTT9=
EXTT10=
EXTT11=
PLAYORDER=
